<svg id="구성_요소_5_2" data-name="구성 요소 5 – 2" xmlns="http://www.w3.org/2000/svg" width="40" height="40" viewBox="0 0 40 40">
    <defs>
        <clipPath id="clip-path">
            <path id="사각형_14" data-name="사각형 14" style="fill:none" d="M0 0h40v40H0z"/>
        </clipPath>
        <style>
            .cls-3{fill:#999}
        </style>
    </defs>
    <g id="그룹_27" data-name="그룹 27" style="clip-path:url(#clip-path)">
        <path id="패스_31" data-name="패스 31" class="cls-3" d="M24.808 9.324a4.809 4.809 0 1 0-9.617 0v4.612h-3.5V9.324a8.309 8.309 0 1 1 16.617 0"/>
        <path id="선_6" data-name="선 6" transform="translate(24.808 13.935)" style="fill:#1d1d1b" d="M3.5 0H0"/>
        <path id="패스_32" data-name="패스 32" class="cls-3" d="M29.927 38.985H10.073a3.86 3.86 0 0 1-3.855-3.856V16.7a3.86 3.86 0 0 1 3.855-3.855h19.854a3.859 3.859 0 0 1 3.855 3.855v18.429a3.86 3.86 0 0 1-3.855 3.856M10.073 16.349a.356.356 0 0 0-.355.355v18.425a.356.356 0 0 0 .355.356h19.854a.356.356 0 0 0 .355-.356V16.7a.356.356 0 0 0-.355-.355z"/>
        <path id="패스_33" data-name="패스 33" class="cls-3" d="M20 30.206a3.685 3.685 0 1 1 3.685-3.685A3.689 3.689 0 0 1 20 30.206m0-5.37a1.685 1.685 0 1 0 1.685 1.685A1.687 1.687 0 0 0 20 24.836"/>
        <path id="패스_34" data-name="패스 34" class="cls-3" d="M20 34.222a1 1 0 0 1-1-1v-4.016a1 1 0 0 1 2 0v4.016a1 1 0 0 1-1 1"/>
    </g>
</svg>
