<svg data-name="구성 요소 1 – 5" xmlns="http://www.w3.org/2000/svg" xmlns:xlink="http://www.w3.org/1999/xlink" width="170" height="41.635" viewBox="0 0 170 41.635">
    <defs>
        <clipPath id="avh61p3atb">
            <path data-name="패스 1" d="M24.849 1.127a10.254 10.254 0 0 0-10.242 10.242v8.389h6.242v-8.389a4 4 0 0 1 4-4h17.118V1.127z" transform="translate(-14.607 -1.127)" style="fill:none"/>
        </clipPath>
        <clipPath id="pxmriuuuic">
            <path data-name="패스 2" d="M24.849 37.153A10.254 10.254 0 0 0 14.607 47.4v9.124h6.242V47.4a4 4 0 0 1 4-4h8.856v-6.247z" transform="translate(-14.607 -37.153)" style="fill:none"/>
        </clipPath>
        <clipPath id="ibta8e1jne">
            <path data-name="사각형 5" style="fill:none" d="M0 0h6.242v31.483H0z"/>
        </clipPath>
        <clipPath id="s5j4nciwtg">
            <path data-name="패스 3" d="M0 5.2a3.121 3.121 0 1 0 3.121-3.125A3.122 3.122 0 0 0 0 5.2" transform="translate(0 -2.075)" style="fill:none"/>
        </clipPath>
        <clipPath id="ucp80gqsmi">
            <path data-name="패스 4" d="M50.9 40.172a3.121 3.121 0 1 0 3.121-3.121 3.12 3.12 0 0 0-3.121 3.121" transform="translate(-50.902 -37.051)" style="fill:none"/>
        </clipPath>
        <clipPath id="doa75gv4yk">
            <path data-name="사각형 10" style="fill:none" d="M0 0h170v41.635H0z"/>
        </clipPath>
        <linearGradient id="zphxb8ew9a" x1="-.17" y1="1.528" x2="-.152" y2="1.528" gradientUnits="objectBoundingBox">
            <stop offset="0" stop-color="#b000f9"/>
            <stop offset="1" stop-color="#4033a2"/>
        </linearGradient>
        <linearGradient id="wru2f55jjd" x1="-.176" y1=".887" x2="-.154" y2=".887" xlink:href="#zphxb8ew9a"/>
        <linearGradient id="zq8suubbgf" x1=".364" y1="1.056" x2=".389" y2="1.056" xlink:href="#zphxb8ew9a"/>
        <linearGradient id="yuj8c8cl4h" x1=".14" y1="4.802" x2=".207" y2="4.802" xlink:href="#zphxb8ew9a"/>
        <linearGradient id="dl9mmk824j" x1="-3.27" y1="2.459" x2="-3.203" y2="2.459" xlink:href="#zphxb8ew9a"/>
    </defs>
    <g data-name="그룹 10">
        <g data-name="그룹 9" style="clip-path:url(#avh61p3atb)" transform="translate(8.486 .655)">
            <path data-name="사각형 2" transform="rotate(-34.28 5.244 17.017)" style="fill:url(#zphxb8ew9a)" d="M0 0h33.101v30.803H0z"/>
        </g>
    </g>
    <g data-name="그룹 12">
        <g data-name="그룹 11" style="clip-path:url(#pxmriuuuic)" transform="translate(8.486 21.584)">
            <path data-name="사각형 3" transform="rotate(-34.28 5.45 17.686)" style="fill:url(#wru2f55jjd)" d="M0 0h26.687v26.758H0z"/>
        </g>
    </g>
    <g data-name="그룹 14">
        <g data-name="그룹 13" style="clip-path:url(#ibta8e1jne)" transform="translate(0 9.467)">
            <path data-name="사각형 4" transform="rotate(-34.28 8.86 28.754)" style="fill:url(#zq8suubbgf)" d="M0 0h22.885v29.533H0z"/>
        </g>
    </g>
    <g data-name="그룹 16">
        <g data-name="그룹 15" style="clip-path:url(#s5j4nciwtg)" transform="translate(0 1.206)">
            <path data-name="사각형 6" transform="rotate(-34.28 1.757 5.702)" style="fill:url(#yuj8c8cl4h)" d="M0 0h8.673v8.673H0z"/>
        </g>
    </g>
    <g data-name="그룹 18">
        <g data-name="그룹 17" style="clip-path:url(#ucp80gqsmi)" transform="translate(29.571 21.525)">
            <path data-name="사각형 7" transform="rotate(-34.267 1.758 5.7)" style="fill:url(#dl9mmk824j)" d="M0 0h8.673v8.673H0z"/>
        </g>
    </g>
    <g data-name="그룹 20">
        <g data-name="그룹 19" style="clip-path:url(#doa75gv4yk)">
            <path data-name="패스 5" d="M55.576 58.506a4.272 4.272 0 0 0 2.486 3.707l-.627.823a4.75 4.75 0 0 1-2.409-2.661 4.868 4.868 0 0 1-2.464 2.894l-.649-.832a4.516 4.516 0 0 0 2.53-3.931v-.883h-2.167v-.863h5.4v.863h-2.1zm5.764 1.818h-1.551v4.692h-1.133v-9.171h1.133v3.616h1.551z" transform="translate(1.246 -23.402)" style="fill:#636363"/>
            <path data-name="패스 6" d="M78.624 61.031v.843h-9.009v-.843h3.927v-.884h-2.75V56.44h1.122v1.046h4.422V56.44h1.122v3.707h-2.772v.884zM71.9 64.24h5.71v.853h-6.851v-2.57H71.9zm.011-4.926h4.422V58.3h-4.419z" transform="translate(-6.172 -23.651)" style="fill:#636363"/>
            <path data-name="패스 7" d="M90.67 58.1a4.407 4.407 0 0 0 2.574 4.022l-.66.832a4.686 4.686 0 0 1-2.464-2.752 4.861 4.861 0 0 1-2.53 2.955l-.672-.874a4.568 4.568 0 0 0 2.619-4.183v-1.5h1.133zm4.51 6.927h-1.144v-9.2h1.144z" transform="translate(-13.424 -23.395)" style="fill:#636363"/>
            <path data-name="패스 8" d="M109.7 60.974a3.663 3.663 0 0 1-2.332-1.838 3.926 3.926 0 0 1-2.464 2.133l-.572-.823a3.167 3.167 0 0 0 2.431-2.926v-.182h-2.112V56.5h5.335v.843h-2.079v.173a2.893 2.893 0 0 0 2.343 2.651zm2.585 2.305c0 1.087-1.265 1.736-3.311 1.736s-3.311-.649-3.311-1.736 1.265-1.736 3.311-1.736 3.311.64 3.311 1.736m-1.122 0c0-.6-.8-.914-2.188-.914s-2.189.315-2.189.914.8.914 2.189.914 2.188-.325 2.188-.914m2.42-5.2v.863h-1.403v2.387h-1.133v-5.484h1.133v2.234z" transform="translate(-20.723 -23.402)" style="fill:#636363"/>
            <path data-name="패스 11" d="M169.339 56.384v1.351h2.475v-1.351h1.133v4.408h-4.73v-4.408zm6.556 5.444v3.189h-1.133V62.67H169.2v-.842zm-6.556-1.879h2.475v-1.4h-2.475zm6.556 1.412h-1.133v-5.515h1.133z" transform="translate(-70.492 -23.402)" style="fill:#636363"/>
            <path data-name="패스 12" d="M186.454 62.013a15.467 15.467 0 0 0 3.058-.254l.1.863a18.825 18.825 0 0 1-3.608.254h-.671v-5.961h3.762v.853h-2.64zm3.916-5.982h1.067v8.541h-1.067v-4.448h-1.958v-.853h1.958zM193.483 65h-1.089v-9.172h1.089z" transform="translate(-77.664 -23.395)" style="fill:#636363"/>
            <path data-name="패스 13" d="M207.865 59.738c0 1.991-1.078 3.239-2.563 3.239s-2.552-1.248-2.552-3.239c0-1.971 1.078-3.229 2.552-3.229s2.563 1.259 2.563 3.229m-4.026 0c0 1.442.6 2.305 1.463 2.305s1.474-.863 1.474-2.305c0-1.422-.6-2.285-1.474-2.285s-1.463.863-1.463 2.285m6.754 5.291h-1.144v-9.2h1.144z" transform="translate(-84.963 -23.395)" style="fill:#636363"/>
            <path data-name="패스 14" d="M221.491 62.017a25.59 25.59 0 0 0 4.015-.264l.1.842a25.88 25.88 0 0 1-4.466.275h-.781v-6.247h4.609v.864h-3.476V59.2h3.069v.832h-3.069zm6.677-6.206v9.2h-1.144v-4.965h-1.9v-.863h1.9v-3.372z" transform="translate(-92.341 -23.388)" style="fill:#636363"/>
            <path data-name="패스 15" d="M251.3 60.851h-9v-.833h9zm-6.788-3.751H243.1v-.8h7.359v.8h-1.4v1.483h1.342v.792h-7.249v-.792h1.352zm0 7.242h5.94v.782h-7.062v-2.192h5.665v-.64h-5.687v-.772h6.8v2.133h-5.654zm3.421-7.242h-2.288v1.483h2.288z" transform="translate(-101.537 -23.592)" style="fill:#636363"/>
            <path data-name="패스 16" d="M264.765 60.913a19.281 19.281 0 0 1-3.652.264h-.672v-2.762h2.64v-1.057h-2.661v-.823h3.762V59.2h-2.64v1.137a16.629 16.629 0 0 0 3.113-.254zm.869.934c0 1.087 1.364 2.082 3.278 2.326l-.44.813a4.892 4.892 0 0 1-3.388-1.818 4.921 4.921 0 0 1-3.41 1.818l-.44-.813c1.914-.243 3.278-1.239 3.278-2.326v-.2h1.122zm.616-.569h-1.056v-5.26h1.056v2.143h1.1v-2.316h1.078v6.206h-1.078v-3.037h-1.1z" transform="translate(-109.129 -23.402)" style="fill:#636363"/>
            <path data-name="패스 17" d="M286.127 60.576v.833h-9.009v-.833h3.927v-.9h-3.057v-.843h1.352v-1.69h-1.408V56.3h7.359v.843h-1.4v1.686h1.343v.843h-3.047v.9zm-7.919 1.584h6.82v2.935h-6.82zm1.122 2.1h4.587v-1.267h-4.587zm1.144-5.434h2.288v-1.683h-2.288z" transform="translate(-116.127 -23.592)" style="fill:#636363"/>
            <path data-name="패스 18" d="M73.289 1h21.455v7.778H81.857v3.46h11.972v7.075H81.857v8.9h-8.568z" transform="translate(-30.712 -.42)" style="fill:#b000f9"/>
            <path data-name="사각형 8" transform="translate(66.118 .583)" style="fill:#b000f9" d="M0 0h8.567v27.21H0z"/>
            <path data-name="패스 19" d="M133.725 1h8.018l9.117 12.011V1h8.494v27.21h-7.616l-9.519-12.555v12.559h-8.494z" transform="translate(-56.038 -.42)" style="fill:#b000f9"/>
            <path data-name="패스 20" d="M182.881 1h14.352a13.277 13.277 0 0 1 4.412.622 7.207 7.207 0 0 1 2.874 1.827 5.9 5.9 0 0 1 1.135 1.788 6.312 6.312 0 0 1 .439 2.449v.078a5.97 5.97 0 0 1-1.245 3.945 7.726 7.726 0 0 1-3.332 2.274 9.261 9.261 0 0 1 3.984 2.297 5.938 5.938 0 0 1 1.474 4.315v.078a7.236 7.236 0 0 1-.623 3.013 6.494 6.494 0 0 1-1.87 2.391 9.033 9.033 0 0 1-3.1 1.574 14.69 14.69 0 0 1-4.272.564h-14.228zm12.081 10.69q2.709 0 2.71-1.866v-.075q0-1.866-2.746-1.866h-3.7v3.81zm.55 9.64a3.436 3.436 0 0 0 2.105-.544 1.72 1.72 0 0 0 .713-1.438v-.077a1.737 1.737 0 0 0-.7-1.438 3.353 3.353 0 0 0-2.087-.544h-4.32v4.043z" transform="translate(-76.637 -.42)" style="fill:#4033a2"/>
            <path data-name="사각형 9" transform="translate(132.238 .583)" style="fill:#4033a2" d="M0 0h8.567v27.21H0z"/>
            <path data-name="패스 21" d="M260.919 28.376a15.459 15.459 0 0 1-5.62-1.011 13.711 13.711 0 0 1-4.577-2.876 13.355 13.355 0 0 1-3.076-4.47 14.441 14.441 0 0 1-1.117-5.753v-.078a14.793 14.793 0 0 1 1.061-5.636 13.448 13.448 0 0 1 7.451-7.483A14.55 14.55 0 0 1 260.663 0a15.148 15.148 0 0 1 10.727 4.121l-4.8 6.142a10.641 10.641 0 0 0-2.672-1.75 7.292 7.292 0 0 0-3-.622 5.491 5.491 0 0 0-4.137 1.827 6.059 6.059 0 0 0-1.19 2.021 7.507 7.507 0 0 0-.421 2.565v.078a7.387 7.387 0 0 0 .457 2.643 6.131 6.131 0 0 0 1.264 2.06 5.53 5.53 0 0 0 1.922 1.322 6.363 6.363 0 0 0 2.471.466 7.917 7.917 0 0 0 1.757-.156 3.99 3.99 0 0 0 1.172-.466v-2.72h-4.394v-5.792h12.411V24.3a16.77 16.77 0 0 1-4.942 2.948 17.274 17.274 0 0 1-6.371 1.124" transform="translate(-103.309)" style="fill:#4033a2"/>
        </g>
    </g>
</svg>
