<svg data-name="구성 요소 10 – 4" xmlns="http://www.w3.org/2000/svg" width="28" height="28" viewBox="0 0 28 28">
    <defs>
        <clipPath id="a">
            <path data-name="사각형 33" style="fill:none" d="M0 0h28v28H0z"/>
        </clipPath>
    </defs>
    <g data-name="그룹 50" style="clip-path:url(#a)">
        <path data-name="패스 38" d="M27.145 13.144h-2.77l1.039-1.486a.855.855 0 0 0-1.4-.981l-1.728 2.467h-3.469a4.865 4.865 0 0 0-.805-1.947l2.451-2.451 2.966.522a.808.808 0 0 0 .15.014.855.855 0 0 0 .147-1.7l-1.785-.315L23.9 5.31a.855.855 0 0 0-1.21-1.21l-1.96 1.959-.315-1.785a.855.855 0 0 0-1.685.3l.523 2.966L16.8 9.988a4.877 4.877 0 0 0-1.946-.805V5.715l2.466-1.727a.855.855 0 0 0-.981-1.4l-1.483 1.037V.855a.856.856 0 0 0-1.712 0v2.77l-1.485-1.039a.856.856 0 0 0-.981 1.4l2.467 1.727v3.47a4.871 4.871 0 0 0-1.946.8L8.746 7.537l.523-2.966a.855.855 0 0 0-1.684-.3L7.27 6.059 5.31 4.1A.855.855 0 1 0 4.1 5.31l1.96 1.959-1.786.315a.855.855 0 0 0 .147 1.7.819.819 0 0 0 .15-.014l2.965-.522L9.988 11.2a4.867 4.867 0 0 0-.8 1.946H5.714l-1.727-2.468a.855.855 0 1 0-1.4.981l1.04 1.486H.855a.855.855 0 1 0 0 1.711h2.771l-1.04 1.486a.855.855 0 0 0 1.4.981l1.727-2.467h3.471a4.866 4.866 0 0 0 .8 1.947l-2.448 2.451-2.965-.523a.855.855 0 1 0-.3 1.685l1.786.314L4.1 22.689A.855.855 0 1 0 5.31 23.9l1.959-1.96.314 1.786a.857.857 0 0 0 .841.708 1.015 1.015 0 0 0 .15-.013.855.855 0 0 0 .693-.991l-.523-2.966 2.456-2.453a4.865 4.865 0 0 0 1.947.805v3.468l-2.467 1.728a.855.855 0 0 0 .492 1.555.843.843 0 0 0 .489-.155l1.486-1.039v2.77a.856.856 0 1 0 1.712 0v-2.77l1.485 1.039a.843.843 0 0 0 .489.155.855.855 0 0 0 .491-1.555l-2.466-1.727v-3.468a4.887 4.887 0 0 0 1.946-.805l2.452 2.451-.523 2.966a.856.856 0 0 0 .694.991 1 1 0 0 0 .149.013.857.857 0 0 0 .841-.708l.315-1.786 1.96 1.96a.855.855 0 0 0 1.21-1.21l-1.96-1.959 1.785-.314a.855.855 0 0 0-.3-1.685l-2.966.523-2.448-2.454a4.864 4.864 0 0 0 .8-1.947h3.467l1.728 2.467a.856.856 0 0 0 1.4-.981l-1.039-1.486h2.77a.855.855 0 1 0 0-1.711M14 16.687A2.687 2.687 0 1 1 16.688 14 2.688 2.688 0 0 1 14 16.687" style="fill:#5fc9f9"/>
    </g>
</svg>
