<svg data-name="구성 요소 7 – 2" xmlns="http://www.w3.org/2000/svg" width="28" height="28" viewBox="0 0 28 28">
    <defs>
        <clipPath id="a">
            <path data-name="사각형 29" style="fill:none" d="M0 0h28v28H0z"/>
        </clipPath>
    </defs>
    <g data-name="그룹 43" style="clip-path:url(#a)">
        <path data-name="패스 36" d="M22.823 13.639a9.182 9.182 0 1 1-9.18 9.181 9.181 9.181 0 0 1 9.18-9.181" transform="translate(-8.823 -8.82)" style="fill-rule:evenodd;fill:#ffae2f"/>
        <path data-name="패스 37" d="M7.023 1.863v4.075l1.764-1.019L10.552 3.9 8.787 2.881zM1.889 6.976l1.018 1.765 1.018 1.764 1.02-1.764 1.018-1.765H1.889zM0 13.974l1.765-1.019 1.764-1.019v4.074l-1.764-1.018zm1.863 7h4.074l-1.018-1.762L3.9 17.449l-1.02 1.763zm5.114 5.133 1.764-1.018 1.764-1.02-1.764-1.014-1.764-1.018v4.074zm7 1.889-1.019-1.765-1.018-1.765h4.07l-1.018 1.765zm7-1.861v-4.073l-1.764 1.02-1.765 1.018 1.764 1.019zm5.133-5.116-1.017-1.763-1.02-1.765-1.018 1.765-1.017 1.763h4.073zm1.891-7-1.764 1.019-1.766 1.02v-4.07l1.766 1.02zm-1.862-7h-4.077l1.019 1.764 1.019 1.769 1.018-1.765zm-5.116-5.131-1.766 1.02-1.764 1.018 1.763 1.02 1.767 1.018V1.888zM14.026 0l1.019 1.763 1.02 1.765h-4.077l1.02-1.765z" style="fill:#ffe100;fill-rule:evenodd"/>
    </g>
</svg>
