<svg id="구성_요소_16_2" data-name="구성 요소 16 – 2" xmlns="http://www.w3.org/2000/svg" width="121" height="121" viewBox="0 0 121 121">
    <defs>
        <linearGradient id="linear-gradient" x1=".138" y1=".136" x2=".82" y2=".92" gradientUnits="objectBoundingBox">
            <stop offset="0" stop-color="#b000f9"/>
            <stop offset="1" stop-color="#4033a2"/>
        </linearGradient>
        <style>
            .cls-2{fill:url(#linear-gradient)}
        </style>
    </defs>
    <g id="Icon_" data-name="Icon">
        <g id="Icon" transform="translate(4.845 4.799)">
            <path id="Path" class="cls-2" d="M61.608 116.823a55.452 55.452 0 0 1-42.372-91.5A55.808 55.808 0 0 1 83.993 10.7a5.044 5.044 0 0 1-4.106 9.214 45.394 45.394 0 0 0-56.556 66.167A45.394 45.394 0 0 0 106.806 61.4v-4.637a5.044 5.044 0 1 1 10.087 0V61.4a55.811 55.811 0 0 1-39.75 53.176 54.755 54.755 0 0 1-15.535 2.247z" transform="translate(-6.009 -5.952)"/>
            <path id="Path-2" data-name="Path" class="cls-2" d="M66.417 75.048a4.771 4.771 0 0 1-3.374-1.4l-14.312-14.31a4.771 4.771 0 1 1 6.747-6.747l10.937 10.938 44.335-44.38a4.771 4.771 0 0 1 6.75 6.744L69.792 73.649a4.831 4.831 0 0 1-3.375 1.399z" transform="translate(-8.012 -3.237)"/>
        </g>
    </g>
</svg>
