<svg id="구성_요소_4_2" data-name="구성 요소 4 – 2" xmlns="http://www.w3.org/2000/svg" width="40" height="40" viewBox="0 0 40 40">
    <defs>
        <clipPath id="clip-path">
            <path id="사각형_13" data-name="사각형 13" style="fill:none" d="M0 0h40v40H0z"/>
        </clipPath>
        <style>
            .cls-3{fill:#999}
        </style>
    </defs>
    <g id="그룹_25" data-name="그룹 25" style="clip-path:url(#clip-path)">
        <path id="패스_25" data-name="패스 25" class="cls-3" d="M16.424 36.668H9.272a.948.948 0 0 1-.917-.713L3.978 18.85a.948.948 0 0 1 .922-1.183h10.065a.948.948 0 0 1 .944.867l1.459 17.106a.948.948 0 0 1-.944 1.028m-6.416-1.9h5.384L14.1 19.562H6.116z"/>
        <path id="패스_26" data-name="패스 26" class="cls-3" d="M23.575 36.668h-7.151a.948.948 0 0 1-.944-.867l-1.459-17.106a.948.948 0 0 1 .944-1.028h10.069a.949.949 0 0 1 .945 1.028L24.52 35.8a.949.949 0 0 1-.945.867m-6.281-1.9H22.7L24 19.562h-8z"/>
        <path id="패스_27" data-name="패스 27" class="cls-3" d="M30.727 36.668h-7.152a.949.949 0 0 1-.944-1.028l1.459-17.106a.948.948 0 0 1 .944-.867H35.1a.949.949 0 0 1 .918 1.183l-4.374 17.105a.948.948 0 0 1-.917.713m-6.12-1.9h5.384l3.893-15.211h-7.979z"/>
        <path id="패스_28" data-name="패스 28" class="cls-3" d="M35.818 19.562H4.181A2.184 2.184 0 0 1 2 17.38v-.665a2.184 2.184 0 0 1 2.181-2.182h31.637A2.185 2.185 0 0 1 38 16.715v.665a2.185 2.185 0 0 1-2.182 2.182M4.181 16.428a.288.288 0 0 0-.287.287v.665a.288.288 0 0 0 .287.287h31.637a.288.288 0 0 0 .287-.287v-.665a.288.288 0 0 0-.287-.287z"/>
        <path id="패스_29" data-name="패스 29" class="cls-3" d="M8.1 16.428a.947.947 0 0 1-.861-1.341l5.124-11.2a.947.947 0 0 1 1.722.788l-5.125 11.2a.947.947 0 0 1-.862.553"/>
        <path id="선_5" data-name="선 5" transform="translate(26.779 4.281)" style="fill:#fff" d="M5.123 11.2 0 0"/>
        <path id="패스_30" data-name="패스 30" class="cls-3" d="M31.9 16.428a.947.947 0 0 1-.862-.553l-5.123-11.2a.947.947 0 0 1 1.722-.788l5.124 11.2a.947.947 0 0 1-.861 1.341"/>
    </g>
</svg>
