<svg data-name="구성 요소 3 – 2" xmlns="http://www.w3.org/2000/svg" width="40" height="40" viewBox="0 0 40 40">
    <defs>
        <clipPath id="a">
            <path data-name="사각형 12" style="fill:none" d="M0 0h40v40H0z"/>
        </clipPath>
    </defs>
    <g data-name="그룹 23" style="clip-path:url(#a)">
        <path data-name="패스 24" d="M20 2A18 18 0 1 1 7.273 7.272 17.945 17.945 0 0 1 20 2m6.04 9.024c1.468 2.476.957 4.967.45 7.436-.1.475-.195.95-.283 1.477a6.106 6.106 0 0 1-2.153 3.606l-.061.05a1.688 1.688 0 0 0 .381.643 2.433 2.433 0 0 0 1.049.622l2.5.83.4.123c1.463.454 3.572 1.126 4.734 2.6a15.53 15.53 0 1 0-26.112 0c1.161-1.476 3.271-2.148 4.734-2.6l.4-.126c.231-.07.631-.2 1.1-.36l1.4-.467a2.437 2.437 0 0 0 1.05-.622 1.719 1.719 0 0 0 .381-.642l-.062-.051a6.111 6.111 0 0 1-2.153-3.606c-.088-.528-.186-1-.283-1.478-.512-2.477-1.022-4.971.463-7.459a6.152 6.152 0 0 1 2.16-2.131 7.825 7.825 0 0 1 7.749.017 6.138 6.138 0 0 1 2.156 2.138m5.347 19.535c-.335-1.305-2.458-1.98-3.8-2.4a6.436 6.436 0 0 1-.4-.126 82.477 82.477 0 0 1-1.141-.375l-1.385-.458a4.867 4.867 0 0 1-2.091-1.287 4.128 4.128 0 0 1-.754-1.136 5.651 5.651 0 0 1-1.707.272h-.218a5.658 5.658 0 0 1-1.708-.272 4.109 4.109 0 0 1-.753 1.136 4.863 4.863 0 0 1-2.091 1.287l-1.386.457a87.15 87.15 0 0 1-1.141.375c-.133.038-.264.088-.4.126-1.343.418-3.466 1.093-3.8 2.4.133.143.268.284.407.422a15.528 15.528 0 0 0 21.962 0c.139-.138.273-.279.406-.422m-7.309-12.59c.411-2 .826-4.024-.162-5.69A3.691 3.691 0 0 0 22.62 11a5.344 5.344 0 0 0-5.23-.007 3.686 3.686 0 0 0-1.3 1.272c-1 1.666-.58 3.691-.168 5.7.111.542.223 1.084.3 1.565a3.635 3.635 0 0 0 1.3 2.119 3.783 3.783 0 0 0 2.364.931h.218a3.783 3.783 0 0 0 2.363-.931 3.635 3.635 0 0 0 1.3-2.119c.079-.481.191-1.023.3-1.564" style="fill:#999;fill-rule:evenodd"/>
    </g>
</svg>
