<svg id="구성_요소_1_6" data-name="구성 요소 1 – 6" xmlns="http://www.w3.org/2000/svg" width="259" height="63.432" viewBox="0 0 259 63.432">
    <defs>
        <clipPath id="clip-path">
            <path id="패스_1" data-name="패스 1" class="cls-1" d="M30.211 1.127a15.622 15.622 0 0 0-15.6 15.6v12.786h9.51V16.731a6.1 6.1 0 0 1 6.094-6.094H56.29v-9.51z" transform="translate(-14.607 -1.127)"/>
        </clipPath>
        <clipPath id="clip-path-2">
            <path id="패스_2" data-name="패스 2" class="cls-1" d="M30.211 37.153a15.622 15.622 0 0 0-15.6 15.6v13.9h9.51v-13.9a6.1 6.1 0 0 1 6.094-6.095H43.7v-9.505z" transform="translate(-14.607 -37.153)"/>
        </clipPath>
        <clipPath id="clip-path-3">
            <path id="사각형_5" data-name="사각형 5" class="cls-1" d="M0 0h9.509v47.966H0z"/>
        </clipPath>
        <clipPath id="clip-path-4">
            <path id="패스_3" data-name="패스 3" class="cls-1" d="M0 6.831a4.755 4.755 0 1 0 4.755-4.756A4.756 4.756 0 0 0 0 6.831" transform="translate(0 -2.075)"/>
        </clipPath>
        <clipPath id="clip-path-5">
            <path id="패스_4" data-name="패스 4" class="cls-1" d="M50.9 41.806a4.755 4.755 0 1 0 4.755-4.755 4.754 4.754 0 0 0-4.755 4.755" transform="translate(-50.902 -37.051)"/>
        </clipPath>
        <clipPath id="clip-path-6">
            <path id="사각형_10" data-name="사각형 10" class="cls-1" d="M0 0h259v63.432H0z"/>
        </clipPath>
        <style>
            .cls-1{fill:#fff}
        </style>
    </defs>
    <g id="그룹_10" data-name="그룹 10" transform="translate(12.929 .998)">
        <g id="그룹_9" data-name="그룹 9" style="clip-path:url(#clip-path)">
            <path id="사각형_2" data-name="사각형 2" class="cls-1" transform="rotate(-34.28 7.99 25.924)" d="M0 0h50.431v46.929H0z"/>
        </g>
    </g>
    <g id="그룹_12" data-name="그룹 12" transform="translate(12.929 32.884)">
        <g id="그룹_11" data-name="그룹 11" style="clip-path:url(#clip-path-2)">
            <path id="사각형_3" data-name="사각형 3" class="cls-1" transform="rotate(-34.28 8.305 26.946)" d="M0 0h40.659v40.766H0z"/>
        </g>
    </g>
    <g id="그룹_14" data-name="그룹 14" transform="translate(0 14.423)">
        <g id="그룹_13" data-name="그룹 13" style="clip-path:url(#clip-path-3)">
            <path id="사각형_4" data-name="사각형 4" class="cls-1" transform="rotate(-34.28 13.501 43.807)" d="M0 0h34.866v44.994H0z"/>
        </g>
    </g>
    <g id="그룹_16" data-name="그룹 16" transform="translate(0 1.837)">
        <g id="그룹_15" data-name="그룹 15" style="clip-path:url(#clip-path-4)">
            <path id="사각형_6" data-name="사각형 6" class="cls-1" transform="rotate(-34.28 2.677 8.685)" d="M0 0h13.214v13.214H0z"/>
        </g>
    </g>
    <g id="그룹_18" data-name="그룹 18" transform="translate(45.053 32.794)">
        <g id="그룹_17" data-name="그룹 17" style="clip-path:url(#clip-path-5)">
            <path id="사각형_7" data-name="사각형 7" class="cls-1" transform="rotate(-34.267 2.678 8.684)" d="M0 0h13.213v13.213H0z"/>
        </g>
    </g>
    <g id="그룹_20" data-name="그룹 20">
        <g id="그룹_19" data-name="그룹 19" style="clip-path:url(#clip-path-6)">
            <path id="패스_5" data-name="패스 5" class="cls-1" d="M57.493 59.9a6.509 6.509 0 0 0 3.787 5.648l-.954 1.252a7.237 7.237 0 0 1-3.67-4.055 7.416 7.416 0 0 1-3.755 4.41l-.989-1.268a6.88 6.88 0 0 0 3.856-5.987v-1.347h-3.3v-1.315h8.229v1.315h-3.2zm8.782 2.77h-2.363v7.148h-1.726V55.845h1.726v5.509h2.363z" transform="translate(-5.965 -6.417)"/>
            <path id="패스_6" data-name="패스 6" class="cls-1" d="M83.34 63.434v1.284H69.615v-1.284H75.6v-1.346h-4.19V56.44h1.709v1.594h6.737V56.44h1.709v5.648h-4.224v1.346zM73.1 68.323h8.7v1.3H71.358v-3.914H73.1zm.017-7.5h6.737v-1.552h-6.737z" transform="translate(-7.999 -6.485)"/>
            <path id="패스_7" data-name="패스 7" class="cls-1" d="M92.634 59.294a6.714 6.714 0 0 0 3.922 6.127L95.55 66.69a7.139 7.139 0 0 1-3.75-4.19 7.406 7.406 0 0 1-3.858 4.5l-1.023-1.331a6.959 6.959 0 0 0 3.989-6.374V57h1.726zm6.871 10.553h-1.743V55.828h1.743z" transform="translate(-9.988 -6.415)"/>
            <path id="패스_8" data-name="패스 8" class="cls-1" d="M112.515 63.659a5.58 5.58 0 0 1-3.553-2.8 5.982 5.982 0 0 1-3.754 3.249l-.872-1.253a4.826 4.826 0 0 0 3.7-4.457v-.278h-3.218v-1.285h8.129v1.285h-3.168v.263c0 1.733 1.257 3.358 3.57 4.039zm3.939 3.512c0 1.656-1.928 2.646-5.044 2.646s-5.045-.99-5.045-2.646c0-1.671 1.928-2.646 5.045-2.646s5.044.974 5.044 2.646m-1.71 0c0-.913-1.223-1.392-3.334-1.392s-3.335.48-3.335 1.392c0 .9 1.223 1.392 3.335 1.392s3.334-.495 3.334-1.392m3.687-7.922v1.315h-2.145V64.2h-1.726v-8.355h1.726v3.4z" transform="translate(-11.989 -6.417)"/>
            <path id="패스_9" data-name="패스 9" class="cls-1" d="M140.917 61.706v1.3h-13.708v-1.3h9.891a14.734 14.734 0 0 0 .419-3.791h-8.58v-1.3h10.273V57.7a16.269 16.269 0 0 1-.386 4.009zm-12.05 2.985h10.341v5.044h-10.34zm1.692 3.776h6.955v-2.506h-6.954z" transform="translate(-14.617 -6.505)"/>
            <path id="패스_10" data-name="패스 10" class="cls-1" d="M155.049 63.585v1.81a2.161 2.161 0 0 1 1.592 1.95c0 1.61-1.944 2.523-5.212 2.523-3.251 0-5.211-.913-5.211-2.523 0-.867.6-1.547 1.675-1.981v-1.779h-3.285V62.3H158.3v1.284zm-8.983-4.8c0-1.656 2.078-2.646 5.4-2.646 3.3 0 5.4.99 5.4 2.646 0 1.64-2.1 2.63-5.4 2.63-3.318 0-5.4-.99-5.4-2.63m1.776 0c0 .9 1.375 1.408 3.62 1.408s3.6-.511 3.6-1.408c0-.913-1.358-1.408-3.6-1.408s-3.62.495-3.62 1.408m7.056 8.556c0-.836-1.257-1.284-3.47-1.284s-3.452.449-3.452 1.284c0 .851 1.24 1.284 3.452 1.284s3.47-.433 3.47-1.284m-1.559-3.76H149.6v1.361a13.369 13.369 0 0 1 1.827-.123 14.275 14.275 0 0 1 1.911.123z" transform="translate(-16.617 -6.451)"/>
            <path id="패스_11" data-name="패스 11" class="cls-1" d="M169.926 56.666v2.058h3.774v-2.058h1.727v6.715h-7.206v-6.715zm9.988 8.294v4.858h-1.726v-3.575h-8.48V64.96zm-9.988-2.86h3.774v-2.138h-3.771zm9.988 2.151h-1.726v-8.4h1.726z" transform="translate(-19.33 -6.417)"/>
            <path id="패스_12" data-name="패스 12" class="cls-1" d="M187.041 65.252a23.566 23.566 0 0 0 4.659-.387l.15 1.314a28.681 28.681 0 0 1-5.5.388h-1.022v-9.083h5.732v1.3h-4.023zm5.966-9.114h1.626V69.15h-1.626v-6.777h-2.983v-1.3h2.983zm4.744 13.662h-1.66V55.828h1.66z" transform="translate(-21.296 -6.415)"/>
            <path id="패스_13" data-name="패스 13" class="cls-1" d="M210.543 61.786c0 3.033-1.643 4.935-3.9 4.935-2.246 0-3.888-1.9-3.888-4.935 0-3 1.642-4.92 3.888-4.92 2.262 0 3.9 1.918 3.9 4.92m-6.134 0c0 2.2.921 3.512 2.229 3.512 1.324 0 2.245-1.315 2.245-3.512 0-2.167-.921-3.481-2.245-3.481-1.307 0-2.229 1.314-2.229 3.481m10.291 8.061h-1.743V55.828h1.743z" transform="translate(-23.298 -6.415)"/>
            <path id="패스_14" data-name="패스 14" class="cls-1" d="M222.084 65.266a38.988 38.988 0 0 0 6.117-.4l.151 1.283a39.429 39.429 0 0 1-6.8.419h-1.19v-9.52h7.021v1.316h-5.3v2.615h4.675v1.268h-4.675zm10.172-9.455v14.018h-1.743v-7.566h-2.9v-1.315h2.9v-5.137z" transform="translate(-25.321 -6.413)"/>
            <path id="패스_15" data-name="패스 15" class="cls-1" d="M256.009 63.233H242.3v-1.269h13.708zm-10.341-5.711h-2.145V56.3h11.211v1.222h-2.129v2.259h2.045v1.207h-11.042v-1.207h2.061zm0 11.033h9.05v1.191H243.96V66.4h8.631v-.97h-8.665v-1.177h10.357V67.5h-8.615zm5.212-11.033h-3.486v2.259h3.486z" transform="translate(-27.842 -6.469)"/>
            <path id="패스_16" data-name="패스 16" class="cls-1" d="M267.04 63.567a29.375 29.375 0 0 1-5.564.4h-1.023V59.76h4.023v-1.609h-4.056V56.9h5.731v4.054h-4.022v1.733a25.336 25.336 0 0 0 4.743-.387zm1.324 1.423c0 1.656 2.078 3.172 4.994 3.543l-.67 1.238A7.453 7.453 0 0 1 267.526 67a7.5 7.5 0 0 1-5.195 2.77l-.671-1.238c2.916-.371 4.994-1.887 4.994-3.543v-.31h1.71zm.938-.867h-1.608v-8.015h1.606v3.265h1.676v-3.528h1.642V65.3h-1.642v-4.627H269.3z" transform="translate(-29.924 -6.417)"/>
            <path id="패스_17" data-name="패스 17" class="cls-1" d="M290.843 62.814v1.268h-13.725v-1.268h5.982v-1.377h-4.658v-1.284h2.06v-2.569h-2.145V56.3h11.211v1.284h-2.129v2.569h2.045v1.284h-4.642v1.377zm-12.066 2.414h10.39V69.7h-10.39zm1.709 3.2h6.989V66.5h-6.989zm1.743-8.278h3.486v-2.566h-3.486z" transform="translate(-31.843 -6.469)"/>
            <path id="패스_18" data-name="패스 18" class="cls-1" d="M73.289 1h32.686v11.848H86.342v5.271h18.24V28.9h-18.24v13.56H73.289z" transform="translate(-8.422 -.115)"/>
            <path id="사각형_8" data-name="사각형 8" class="cls-1" transform="translate(100.733 .889)" d="M0 0h13.052v41.456H0z"/>
            <path id="패스_19" data-name="패스 19" class="cls-1" d="M133.725 1h12.215l13.89 18.3V1h12.941v41.46h-11.6l-14.5-19.129V42.46h-12.946z" transform="translate(-15.366 -.115)"/>
            <path id="패스_20" data-name="패스 20" class="cls-1" d="M182.881 1h21.865a20.227 20.227 0 0 1 6.721.948 10.98 10.98 0 0 1 4.379 2.784 8.983 8.983 0 0 1 1.729 2.723 9.616 9.616 0 0 1 .669 3.732v.119a9.1 9.1 0 0 1-1.9 6.011 11.77 11.77 0 0 1-5.076 3.464 14.109 14.109 0 0 1 6.065 3.494 9.047 9.047 0 0 1 2.246 6.574v.119a11.024 11.024 0 0 1-.95 4.59 9.893 9.893 0 0 1-2.849 3.642 13.761 13.761 0 0 1-4.72 2.4 22.381 22.381 0 0 1-6.508.859h-21.671zm18.406 16.29q4.128 0 4.128-2.843v-.119q0-2.842-4.184-2.843H195.6v5.8zm.837 14.687a5.234 5.234 0 0 0 3.208-.829 2.62 2.62 0 0 0 1.087-2.191v-.118a2.647 2.647 0 0 0-1.059-2.191 5.109 5.109 0 0 0-3.179-.829H195.6v6.159z" transform="translate(-21.014 -.115)"/>
            <path id="사각형_9" data-name="사각형 9" class="cls-1" transform="translate(201.469 .889)" d="M0 0h13.052v41.456H0z"/>
            <path id="패스_21" data-name="패스 21" class="cls-1" d="M268.452 43.232a23.553 23.553 0 0 1-8.561-1.54 20.889 20.889 0 0 1-6.973-4.382 20.346 20.346 0 0 1-4.686-6.811 22 22 0 0 1-1.7-8.764v-.119a22.538 22.538 0 0 1 1.617-8.587 20.489 20.489 0 0 1 11.351-11.4A22.167 22.167 0 0 1 268.062 0 23.078 23.078 0 0 1 284.4 6.278l-7.3 9.357a16.212 16.212 0 0 0-4.071-2.666 11.11 11.11 0 0 0-4.574-.947 8.366 8.366 0 0 0-6.3 2.784 9.231 9.231 0 0 0-1.814 3.079 11.437 11.437 0 0 0-.641 3.909v.119a11.254 11.254 0 0 0 .7 4.027 9.341 9.341 0 0 0 1.925 3.139 8.426 8.426 0 0 0 2.928 2.014 9.694 9.694 0 0 0 3.765.711 12.062 12.062 0 0 0 2.677-.238 6.079 6.079 0 0 0 1.785-.711v-4.146h-6.694v-8.824h18.909v19.144a25.551 25.551 0 0 1-7.529 4.491 26.318 26.318 0 0 1-9.706 1.713" transform="translate(-28.328)"/>
        </g>
    </g>
</svg>
